Coordinates
version=1
nRows=17
nColumns=24
inDegrees=yes

Units are S.I. units (second, meters, Newtons, ...)
Angles are in degrees.

endheader
time	pelvis_tilt	pelvis_list	pelvis_rotation	pelvis_tx	pelvis_ty	pelvis_tz	hip_flexion_r	hip_adduction_r	hip_rotation_r	knee_angle_r	ankle_angle_r	subtalar_angle_r	mtp_angle_r	hip_flexion_l	hip_adduction_l	hip_rotation_l	knee_angle_l	ankle_angle_l	subtalar_angle_l	mtp_angle_l	lumbar_extension	lumbar_bending	lumbar_rotation
      2.25000000	      6.13403527	     -2.26739495	     -0.47346296	      0.59297930	      1.04241854	      0.05025871	     -5.70510934	      4.78589441	     -2.86267880	     -9.93891198	      8.90808514	      5.04338654	      0.00000000	     20.38448128	     -8.44542990	     -8.96374570	    -53.28686072	      3.42914189	     15.12475253	      0.00000000	    -17.87105716	      2.02436352	      1.67785087
      2.26666667	      6.21943152	     -2.38036262	     -0.75742572	      0.59124145	      1.04152848	      0.05091108	     -7.31498775	      4.92045591	     -2.41795307	     -9.12068515	      9.48881294	      5.04338662	      0.00000000	     20.56193145	     -8.56531393	    -10.23175566	    -47.81660548	      3.12970162	     15.12475214	      0.00000000	    -18.07787245	      1.93704346	      2.01838909
      2.28333333	      6.00022640	     -2.67518908	     -1.04289715	      0.58930478	      1.03951790	      0.05163244	     -8.43920739	      5.23642999	     -1.98333928	     -8.63127837	     10.19303877	      5.04338664	      0.00000000	     20.82442392	     -8.83224431	    -11.69736797	    -41.87369251	      2.61220061	     15.12475206	      0.00000000	    -17.94383731	      2.06228028	      2.08592176
      2.30000000	      6.03895660	     -3.03471174	     -1.13972048	      0.58807776	      1.03747141	      0.05196937	     -9.97281816	      5.61808526	     -1.70062847	     -7.96446232	     10.81049770	      5.04338661	      0.00000000	     20.57160206	     -8.95733249	    -13.11965300	    -35.55539677	      1.91730844	     15.12475225	      0.00000000	    -18.13515131	      2.27736863	      2.24991136
      2.31666667	      5.93615207	     -3.31767590	     -1.89882735	      0.58749306	      1.03496604	      0.05213856	    -11.48998720	      5.71307896	     -0.69178371	     -7.10549551	     11.37542824	      5.04338669	      0.00000000	     20.05104418	     -8.96542843	    -15.13346243	    -28.93143611	      1.19095425	     15.12475318	      0.00000000	    -17.98761341	      2.33887713	      3.15704477
      2.33333333	      5.66559405	     -3.71786115	     -1.99420460	      0.58661640	      1.03145452	      0.05202198	    -12.62803851	      6.07954024	     -0.30926897	     -6.65469266	     12.14428125	      5.04338681	      0.00000000	     19.96503557	     -8.73743147	    -15.99432947	    -22.59072767	      0.49975171	     15.12475453	      0.00000000	    -17.69711266	      2.68601547	      3.25531083
      2.35000000	      5.60018271	     -4.16904900	     -2.29879913	      0.58590897	      1.02820122	      0.05188465	    -14.13712298	      6.40778658	      0.30808678	     -5.90512125	     12.66087337	      5.04338702	      0.00000000	     19.49978697	     -8.48105076	    -16.47448041	    -16.36958026	     -0.00049509	     15.12475627	      0.00000000	    -17.72845985	      3.01013788	      3.51068216
      2.36666667	      5.59764560	     -4.66960525	     -2.63654080	      0.58533231	      1.02481129	      0.05134166	    -15.70005442	      6.71643085	      1.05238052	     -5.22201634	     13.13017528	      5.04338706	      0.00000000	     19.05388362	     -8.28081890	    -16.30510775	    -10.90125957	     -0.11287942	     15.12475794	      0.00000000	    -17.88950380	      3.28633405	      3.57064547
      2.38333333	      5.53355084	     -4.96763154	     -3.00346368	      0.58527041	      1.02123006	      0.05068273	    -17.10159384	      6.77941500	      1.70419023	     -4.80504461	     13.71010937	      5.04338718	      0.00000000	     18.62353917	     -7.97124549	    -15.67027591	     -6.19947654	      0.03211796	     15.12475919	      0.00000000	    -17.78087778	      3.45348807	      3.57620447
      2.40000000	      5.68832461	     -5.33080855	     -3.28914325	      0.58530099	      1.01810861	      0.04985411	    -18.80505520	      6.87625410	      2.30314944	     -4.24741976	     14.06692846	      5.04338719	      0.00000000	     18.04741098	     -7.89820089	    -14.54588685	     -2.66053775	      0.39365269	     15.12476014	      0.00000000	    -17.96830204	      3.60367195	      4.00115380
      2.41666667	      5.98158609	     -5.42399861	     -3.62589706	      0.58602691	      1.01543709	      0.04915653	    -20.38313326	      6.66832277	      2.71253015	     -4.32543921	     14.68803749	      5.04338742	      0.00000000	     17.31408586	     -7.79614721	    -13.23306616	     -0.34902352	      0.80185656	     15.12476089	      0.00000000	    -18.26017338	      3.44130401	      4.30712593
      2.43333333	      5.93267363	     -5.71955056	     -3.65078749	      0.58519185	      1.01218492	      0.04854318	    -21.36205898	      6.83501170	      2.90385866	     -4.67538272	     15.25239427	      5.04338760	      0.00000000	     17.53428591	     -8.10171731	    -11.24589128	      0.00638188	      1.09192198	     15.12476120	      0.00000000	    -18.32195832	      3.41964181	      4.23979234
      2.45000000	      5.96899088	     -5.66712106	     -3.83738930	      0.58546470	      1.01013382	      0.04736511	    -22.16769422	      6.53703485	      3.09596676	     -5.60111164	     15.82521386	      5.04338784	      0.00000000	     17.69873789	     -8.05035291	     -9.93791713	     -0.90779007	      0.84361080	     15.12476099	      0.00000000	    -18.46342261	      3.05967025	      4.31273937
      2.46666667	      5.79609565	     -5.14129198	     -4.17337112	      0.58570425	      1.00866114	      0.04572742	    -22.30379707	      5.71092002	      3.23493598	     -7.32379449	     16.52705184	      5.04338815	      0.00000000	     18.27573477	     -7.42977716	     -9.80460773	     -2.94714548	     -0.21672731	     15.12476056	      0.00000000	    -18.23737050	      2.19880216	      4.49705018
      2.48333333	      5.42595945	     -4.87142190	     -4.23627960	      0.58725013	      1.00780556	      0.04340086	    -22.31827030	      5.20925348	      3.27141673	     -8.92612727	     16.63959563	      5.04338832	      0.00000000	     19.18545632	     -6.94860105	    -10.02962492	     -5.71815400	     -1.58537151	     15.12475995	      0.00000000	    -17.89715750	      1.76478557	      4.18072749
      2.50000000	      5.06152683	     -4.34083802	     -4.53681623	      0.58889513	      1.00735073	      0.04118320	    -22.04313094	      4.35312800	      3.42840064	    -11.05547570	     16.69916718	      5.04338875	      0.00000000	     20.00713412	     -6.33968094	    -10.90709318	     -8.66092074	     -3.00010080	     15.12475928	      0.00000000	    -17.34300055	      0.88550016	      4.20223594
      2.51666667	      4.93448840	     -4.09031807	     -4.79553692	      0.59132789	      1.00771455	      0.03970936	    -21.80711891	      3.82996713	      3.62970359	    -13.65792845	     16.40324378	      5.04338924	      0.00000000	     20.54484418	     -6.17064917	    -11.56855015	    -11.83359554	     -3.70682402	     15.12475879	      0.00000000	    -17.02000936	      0.23862041	      4.24322035
